<svg xmlns="http://www.w3.org/2000/svg"  container="body" width="600" height="400" version="1.1" style=""><g xmlns="http://www.w3.org/2000/svg"  fill="black" stroke="none" stroke-width="1" x="0" y="0" width="10" height="10" r="5" cx="5" cy="5" x1="0" x2="10" y1="0" y2="10" style=""><rect xmlns="http://www.w3.org/2000/svg"  fill="black" stroke="none" stroke-width="1" x="0" y="0" width="600" height="400" r="5" cx="5" cy="5" x1="0" x2="10" y1="0" y2="10" style="fill: none"></rect><line xmlns="http://www.w3.org/2000/svg"  fill="black" stroke="none" stroke-width="1" x="0" y="0" width="10" height="10" r="5" cx="5" cy="5" x1="90" x2="90" y1="40" y2="320" style="stroke: none"></line><line xmlns="http://www.w3.org/2000/svg"  fill="black" stroke="none" stroke-width="1" x="0" y="0" width="10" height="10" r="5" cx="5" cy="5" x1="90" x2="480" y1="40" y2="40" style="stroke: #ccc"></line><line xmlns="http://www.w3.org/2000/svg"  fill="black" stroke="none" stroke-width="1" x="0" y="0" width="10" height="10" r="5" cx="5" cy="5" x1="90" x2="480" y1="63.33333333333333" y2="63.33333333333333" style="stroke: #ccc"></line><line xmlns="http://www.w3.org/2000/svg"  fill="black" stroke="none" stroke-width="1" x="0" y="0" width="10" height="10" r="5" cx="5" cy="5" x1="90" x2="480" y1="86.66666666666666" y2="86.66666666666666" style="stroke: #ccc"></line><line xmlns="http://www.w3.org/2000/svg"  fill="black" stroke="none" stroke-width="1" x="0" y="0" width="10" height="10" r="5" cx="5" cy="5" x1="90" x2="480" y1="110" y2="110" style="stroke: #ccc"></line><line xmlns="http://www.w3.org/2000/svg"  fill="black" stroke="none" stroke-width="1" x="0" y="0" width="10" height="10" r="5" cx="5" cy="5" x1="90" x2="480" y1="133.33333333333331" y2="133.33333333333331" style="stroke: #ccc"></line><line xmlns="http://www.w3.org/2000/svg"  fill="black" stroke="none" stroke-width="1" x="0" y="0" width="10" height="10" r="5" cx="5" cy="5" x1="90" x2="480" y1="156.66666666666666" y2="156.66666666666666" style="stroke: #ccc"></line><line xmlns="http://www.w3.org/2000/svg"  fill="black" stroke="none" stroke-width="1" x="0" y="0" width="10" height="10" r="5" cx="5" cy="5" x1="90" x2="480" y1="180" y2="180" style="stroke: #ccc"></line><line xmlns="http://www.w3.org/2000/svg"  fill="black" stroke="none" stroke-width="1" x="0" y="0" width="10" height="10" r="5" cx="5" cy="5" x1="90" x2="480" y1="203.33333333333331" y2="203.33333333333331" style="stroke: #ccc"></line><line xmlns="http://www.w3.org/2000/svg"  fill="black" stroke="none" stroke-width="1" x="0" y="0" width="10" height="10" r="5" cx="5" cy="5" x1="90" x2="480" y1="226.66666666666666" y2="226.66666666666666" style="stroke: #ccc"></line><line xmlns="http://www.w3.org/2000/svg"  fill="black" stroke="none" stroke-width="1" x="0" y="0" width="10" height="10" r="5" cx="5" cy="5" x1="90" x2="480" y1="250" y2="250" style="stroke: #ccc"></line><line xmlns="http://www.w3.org/2000/svg"  fill="black" stroke="none" stroke-width="1" x="0" y="0" width="10" height="10" r="5" cx="5" cy="5" x1="90" x2="480" y1="273.3333333333333" y2="273.3333333333333" style="stroke: #ccc"></line><line xmlns="http://www.w3.org/2000/svg"  fill="black" stroke="none" stroke-width="1" x="0" y="0" width="10" height="10" r="5" cx="5" cy="5" x1="90" x2="480" y1="296.66666666666663" y2="296.66666666666663" style="stroke: #ccc"></line><line xmlns="http://www.w3.org/2000/svg"  fill="black" stroke="none" stroke-width="1" x="0" y="0" width="10" height="10" r="5" cx="5" cy="5" x1="90" x2="480" y1="320" y2="320" style="stroke: #ccc"></line><text xmlns="http://www.w3.org/2000/svg"  fill="black" stroke="none" stroke-width="1" x="80" y="40" width="10" height="10" r="5" cx="5" cy="5" x1="0" x2="10" y1="0" y2="10" value="13" style="fill: #aaa;font-family:Helvetica;font-size:16px;text-anchor: end;dominant-baseline: middle">13</text><text xmlns="http://www.w3.org/2000/svg"  fill="black" stroke="none" stroke-width="1" x="80" y="63.33333333333333" width="10" height="10" r="5" cx="5" cy="5" x1="0" x2="10" y1="0" y2="10" value="12" style="fill: #aaa;font-family:Helvetica;font-size:16px;text-anchor: end;dominant-baseline: middle">12</text><text xmlns="http://www.w3.org/2000/svg"  fill="black" stroke="none" stroke-width="1" x="80" y="86.66666666666666" width="10" height="10" r="5" cx="5" cy="5" x1="0" x2="10" y1="0" y2="10" value="11" style="fill: #aaa;font-family:Helvetica;font-size:16px;text-anchor: end;dominant-baseline: middle">11</text><text xmlns="http://www.w3.org/2000/svg"  fill="black" stroke="none" stroke-width="1" x="80" y="110" width="10" height="10" r="5" cx="5" cy="5" x1="0" x2="10" y1="0" y2="10" value="10" style="fill: #aaa;font-family:Helvetica;font-size:16px;text-anchor: end;dominant-baseline: middle">10</text><text xmlns="http://www.w3.org/2000/svg"  fill="black" stroke="none" stroke-width="1" x="80" y="133.33333333333331" width="10" height="10" r="5" cx="5" cy="5" x1="0" x2="10" y1="0" y2="10" value="9" style="fill: #aaa;font-family:Helvetica;font-size:16px;text-anchor: end;dominant-baseline: middle">9</text><text xmlns="http://www.w3.org/2000/svg"  fill="black" stroke="none" stroke-width="1" x="80" y="156.66666666666666" width="10" height="10" r="5" cx="5" cy="5" x1="0" x2="10" y1="0" y2="10" value="8" style="fill: #aaa;font-family:Helvetica;font-size:16px;text-anchor: end;dominant-baseline: middle">8</text><text xmlns="http://www.w3.org/2000/svg"  fill="black" stroke="none" stroke-width="1" x="80" y="180" width="10" height="10" r="5" cx="5" cy="5" x1="0" x2="10" y1="0" y2="10" value="7" style="fill: #aaa;font-family:Helvetica;font-size:16px;text-anchor: end;dominant-baseline: middle">7</text><text xmlns="http://www.w3.org/2000/svg"  fill="black" stroke="none" stroke-width="1" x="80" y="203.33333333333331" width="10" height="10" r="5" cx="5" cy="5" x1="0" x2="10" y1="0" y2="10" value="6" style="fill: #aaa;font-family:Helvetica;font-size:16px;text-anchor: end;dominant-baseline: middle">6</text><text xmlns="http://www.w3.org/2000/svg"  fill="black" stroke="none" stroke-width="1" x="80" y="226.66666666666666" width="10" height="10" r="5" cx="5" cy="5" x1="0" x2="10" y1="0" y2="10" value="5" style="fill: #aaa;font-family:Helvetica;font-size:16px;text-anchor: end;dominant-baseline: middle">5</text><text xmlns="http://www.w3.org/2000/svg"  fill="black" stroke="none" stroke-width="1" x="80" y="250" width="10" height="10" r="5" cx="5" cy="5" x1="0" x2="10" y1="0" y2="10" value="4" style="fill: #aaa;font-family:Helvetica;font-size:16px;text-anchor: end;dominant-baseline: middle">4</text><text xmlns="http://www.w3.org/2000/svg"  fill="black" stroke="none" stroke-width="1" x="80" y="273.3333333333333" width="10" height="10" r="5" cx="5" cy="5" x1="0" x2="10" y1="0" y2="10" value="3" style="fill: #aaa;font-family:Helvetica;font-size:16px;text-anchor: end;dominant-baseline: middle">3</text><text xmlns="http://www.w3.org/2000/svg"  fill="black" stroke="none" stroke-width="1" x="80" y="296.66666666666663" width="10" height="10" r="5" cx="5" cy="5" x1="0" x2="10" y1="0" y2="10" value="2" style="fill: #aaa;font-family:Helvetica;font-size:16px;text-anchor: end;dominant-baseline: middle">2</text><text xmlns="http://www.w3.org/2000/svg"  fill="black" stroke="none" stroke-width="1" x="80" y="320" width="10" height="10" r="5" cx="5" cy="5" x1="0" x2="10" y1="0" y2="10" value="1" style="fill: #aaa;font-family:Helvetica;font-size:16px;text-anchor: end;dominant-baseline: middle">1</text><text xmlns="http://www.w3.org/2000/svg"  fill="black" stroke="none" stroke-width="1" x="30" y="180" width="10" height="10" r="5" cx="5" cy="5" x1="0" x2="10" y1="0" y2="10" value="Values" transform="rotate(-90 30, 180)" style="fill: #aaa;font-family:Helvetica;font-size:16px;text-anchor: middle">Values</text><line xmlns="http://www.w3.org/2000/svg"  fill="black" stroke="none" stroke-width="1" x="0" y="0" width="10" height="10" r="5" cx="5" cy="5" x1="90" x2="480" y1="343.3333333333333" y2="343.3333333333333" style="stroke: none"></line><line xmlns="http://www.w3.org/2000/svg"  fill="black" stroke="none" stroke-width="1" x="0" y="0" width="10" height="10" r="5" cx="5" cy="5" x1="155" x2="155" y1="40" y2="320" style="stroke: none"></line><text xmlns="http://www.w3.org/2000/svg"  fill="black" stroke="none" stroke-width="1" x="155" y="340" width="10" height="10" r="5" cx="5" cy="5" x1="0" x2="10" y1="0" y2="10" value="2008" style="fill: #666;font-family:Helvetica;font-size:16px;text-anchor: middle">2008</text><line xmlns="http://www.w3.org/2000/svg"  fill="black" stroke="none" stroke-width="1" x="0" y="0" width="10" height="10" r="5" cx="5" cy="5" x1="285" x2="285" y1="40" y2="320" style="stroke: none"></line><text xmlns="http://www.w3.org/2000/svg"  fill="black" stroke="none" stroke-width="1" x="285" y="340" width="10" height="10" r="5" cx="5" cy="5" x1="0" x2="10" y1="0" y2="10" value="2009" style="fill: #666;font-family:Helvetica;font-size:16px;text-anchor: middle">2009</text><line xmlns="http://www.w3.org/2000/svg"  fill="black" stroke="none" stroke-width="1" x="0" y="0" width="10" height="10" r="5" cx="5" cy="5" x1="415" x2="415" y1="40" y2="320" style="stroke: none"></line><text xmlns="http://www.w3.org/2000/svg"  fill="black" stroke="none" stroke-width="1" x="415" y="340" width="10" height="10" r="5" cx="5" cy="5" x1="0" x2="10" y1="0" y2="10" value="2010" style="fill: #666;font-family:Helvetica;font-size:16px;text-anchor: middle">2010</text><text xmlns="http://www.w3.org/2000/svg"  fill="black" stroke="none" stroke-width="1" x="285" y="380" width="10" height="10" r="5" cx="5" cy="5" x1="0" x2="10" y1="0" y2="10" value="Meses" style="fill: #666;font-family:Helvetica;font-size:16px;text-anchor: middle">Meses</text><circle xmlns="http://www.w3.org/2000/svg"  fill="black" stroke="none" stroke-width="1" x="0" y="0" width="10" height="10" r="5" cx="155" cy="109.99999999999997" x1="0" x2="10" y1="0" y2="10" style="fill: #FCD271"></circle><circle xmlns="http://www.w3.org/2000/svg"  fill="black" stroke="none" stroke-width="1" x="0" y="0" width="10" height="10" r="5" cx="285" cy="156.66666666666666" x1="0" x2="10" y1="0" y2="10" style="fill: #FCD271"></circle><line xmlns="http://www.w3.org/2000/svg"  fill="black" stroke="none" stroke-width="1" x="0" y="0" width="10" height="10" r="5" cx="5" cy="5" x1="155" x2="285" y1="109.99999999999997" y2="156.66666666666666" style="stroke: #FCD271"></line><circle xmlns="http://www.w3.org/2000/svg"  fill="black" stroke="none" stroke-width="1" x="0" y="0" width="10" height="10" r="5" cx="415" cy="179.99999999999997" x1="0" x2="10" y1="0" y2="10" style="fill: #FCD271"></circle><line xmlns="http://www.w3.org/2000/svg"  fill="black" stroke="none" stroke-width="1" x="0" y="0" width="10" height="10" r="5" cx="5" cy="5" x1="285" x2="415" y1="156.66666666666666" y2="179.99999999999997" style="stroke: #FCD271"></line><circle xmlns="http://www.w3.org/2000/svg"  fill="black" stroke="none" stroke-width="1" x="0" y="0" width="10" height="10" r="5" cx="155" cy="320" x1="0" x2="10" y1="0" y2="10" style="fill: #FA5882"></circle><circle xmlns="http://www.w3.org/2000/svg"  fill="black" stroke="none" stroke-width="1" x="0" y="0" width="10" height="10" r="5" cx="285" cy="296.66666666666663" x1="0" x2="10" y1="0" y2="10" style="fill: #FA5882"></circle><line xmlns="http://www.w3.org/2000/svg"  fill="black" stroke="none" stroke-width="1" x="0" y="0" width="10" height="10" r="5" cx="5" cy="5" x1="155" x2="285" y1="320" y2="296.66666666666663" style="stroke: #FA5882"></line><circle xmlns="http://www.w3.org/2000/svg"  fill="black" stroke="none" stroke-width="1" x="0" y="0" width="10" height="10" r="5" cx="415" cy="273.3333333333333" x1="0" x2="10" y1="0" y2="10" style="fill: #FA5882"></circle><line xmlns="http://www.w3.org/2000/svg"  fill="black" stroke="none" stroke-width="1" x="0" y="0" width="10" height="10" r="5" cx="5" cy="5" x1="285" x2="415" y1="296.66666666666663" y2="273.3333333333333" style="stroke: #FA5882"></line><circle xmlns="http://www.w3.org/2000/svg"  fill="black" stroke="none" stroke-width="1" x="0" y="0" width="10" height="10" r="5" cx="155" cy="109.99999999999997" x1="0" x2="10" y1="0" y2="10" style="fill: #2BBBD8"></circle><circle xmlns="http://www.w3.org/2000/svg"  fill="black" stroke="none" stroke-width="1" x="0" y="0" width="10" height="10" r="5" cx="285" cy="63.333333333333314" x1="0" x2="10" y1="0" y2="10" style="fill: #2BBBD8"></circle><line xmlns="http://www.w3.org/2000/svg"  fill="black" stroke="none" stroke-width="1" x="0" y="0" width="10" height="10" r="5" cx="5" cy="5" x1="155" x2="285" y1="109.99999999999997" y2="63.333333333333314" style="stroke: #2BBBD8"></line><circle xmlns="http://www.w3.org/2000/svg"  fill="black" stroke="none" stroke-width="1" x="0" y="0" width="10" height="10" r="5" cx="415" cy="40" x1="0" x2="10" y1="0" y2="10" style="fill: #2BBBD8"></circle><line xmlns="http://www.w3.org/2000/svg"  fill="black" stroke="none" stroke-width="1" x="0" y="0" width="10" height="10" r="5" cx="5" cy="5" x1="285" x2="415" y1="63.333333333333314" y2="40" style="stroke: #2BBBD8"></line><circle xmlns="http://www.w3.org/2000/svg"  fill="black" stroke="none" stroke-width="1" x="0" y="0" width="10" height="10" r="5" cx="155" cy="109.99999999999997" x1="0" x2="10" y1="0" y2="10" style="fill: #102E37"></circle><circle xmlns="http://www.w3.org/2000/svg"  fill="black" stroke="none" stroke-width="1" x="0" y="0" width="10" height="10" r="5" cx="285" cy="296.66666666666663" x1="0" x2="10" y1="0" y2="10" style="fill: #102E37"></circle><line xmlns="http://www.w3.org/2000/svg"  fill="black" stroke="none" stroke-width="1" x="0" y="0" width="10" height="10" r="5" cx="5" cy="5" x1="155" x2="285" y1="109.99999999999997" y2="296.66666666666663" style="stroke: #102E37"></line><circle xmlns="http://www.w3.org/2000/svg"  fill="black" stroke="none" stroke-width="1" x="0" y="0" width="10" height="10" r="5" cx="415" cy="156.66666666666666" x1="0" x2="10" y1="0" y2="10" style="fill: #102E37"></circle><line xmlns="http://www.w3.org/2000/svg"  fill="black" stroke="none" stroke-width="1" x="0" y="0" width="10" height="10" r="5" cx="5" cy="5" x1="285" x2="415" y1="296.66666666666663" y2="156.66666666666666" style="stroke: #102E37"></line><circle xmlns="http://www.w3.org/2000/svg"  fill="black" stroke="none" stroke-width="1" x="0" y="0" width="10" height="10" r="6" cx="576" cy="40" x1="0" x2="10" y1="0" y2="10" style="fill: #FCD271"></circle><text xmlns="http://www.w3.org/2000/svg"  fill="black" stroke="none" stroke-width="1" x="564" y="40" width="10" height="10" r="5" cx="5" cy="5" x1="0" x2="10" y1="0" y2="10" value="France" style="fill: #666;font-family:Helvetica;font-size:16px;text-anchor: end;dominant-baseline: middle">France</text><circle xmlns="http://www.w3.org/2000/svg"  fill="black" stroke="none" stroke-width="1" x="0" y="0" width="10" height="10" r="6" cx="576" cy="60.98" x1="0" x2="10" y1="0" y2="10" style="fill: #FA5882"></circle><text xmlns="http://www.w3.org/2000/svg"  fill="black" stroke="none" stroke-width="1" x="564" y="60.98" width="10" height="10" r="5" cx="5" cy="5" x1="0" x2="10" y1="0" y2="10" value="Italy" style="fill: #666;font-family:Helvetica;font-size:16px;text-anchor: end;dominant-baseline: middle">Italy</text><circle xmlns="http://www.w3.org/2000/svg"  fill="black" stroke="none" stroke-width="1" x="0" y="0" width="10" height="10" r="6" cx="576" cy="81.96" x1="0" x2="10" y1="0" y2="10" style="fill: #2BBBD8"></circle><text xmlns="http://www.w3.org/2000/svg"  fill="black" stroke="none" stroke-width="1" x="564" y="81.96" width="10" height="10" r="5" cx="5" cy="5" x1="0" x2="10" y1="0" y2="10" value="Portugal" style="fill: #666;font-family:Helvetica;font-size:16px;text-anchor: end;dominant-baseline: middle">Portugal</text><circle xmlns="http://www.w3.org/2000/svg"  fill="black" stroke="none" stroke-width="1" x="0" y="0" width="10" height="10" r="6" cx="576" cy="102.94" x1="0" x2="10" y1="0" y2="10" style="fill: #102E37"></circle><text xmlns="http://www.w3.org/2000/svg"  fill="black" stroke="none" stroke-width="1" x="564" y="102.94" width="10" height="10" r="5" cx="5" cy="5" x1="0" x2="10" y1="0" y2="10" value="Spain" style="fill: #666;font-family:Helvetica;font-size:16px;text-anchor: end;dominant-baseline: middle">Spain</text></g></svg>