<svg xmlns="http://www.w3.org/2000/svg"  container="body" width="600" height="400" version="1.1" style=""><g xmlns="http://www.w3.org/2000/svg"  fill="black" stroke="none" stroke-width="1" x="0" y="0" width="10" height="10" r="5" cx="5" cy="5" x1="0" x2="10" y1="0" y2="10" style=""><rect xmlns="http://www.w3.org/2000/svg"  fill="black" stroke="none" stroke-width="1" x="0" y="0" width="600" height="400" r="5" cx="5" cy="5" x1="0" x2="10" y1="0" y2="10" style="fill: none"></rect><line xmlns="http://www.w3.org/2000/svg"  fill="black" stroke="none" stroke-width="1" x="0" y="0" width="10" height="10" r="5" cx="5" cy="5" x1="90" x2="90" y1="40" y2="320" style="stroke: none"></line><line xmlns="http://www.w3.org/2000/svg"  fill="black" stroke="none" stroke-width="1" x="0" y="0" width="10" height="10" r="5" cx="5" cy="5" x1="90" x2="480" y1="40" y2="40" style="stroke: #ccc"></line><line xmlns="http://www.w3.org/2000/svg"  fill="black" stroke="none" stroke-width="1" x="0" y="0" width="10" height="10" r="5" cx="5" cy="5" x1="90" x2="480" y1="75" y2="75" style="stroke: #ccc"></line><line xmlns="http://www.w3.org/2000/svg"  fill="black" stroke="none" stroke-width="1" x="0" y="0" width="10" height="10" r="5" cx="5" cy="5" x1="90" x2="480" y1="110" y2="110" style="stroke: #ccc"></line><line xmlns="http://www.w3.org/2000/svg"  fill="black" stroke="none" stroke-width="1" x="0" y="0" width="10" height="10" r="5" cx="5" cy="5" x1="90" x2="480" y1="145" y2="145" style="stroke: #ccc"></line><line xmlns="http://www.w3.org/2000/svg"  fill="black" stroke="none" stroke-width="1" x="0" y="0" width="10" height="10" r="5" cx="5" cy="5" x1="90" x2="480" y1="180" y2="180" style="stroke: #ccc"></line><line xmlns="http://www.w3.org/2000/svg"  fill="black" stroke="none" stroke-width="1" x="0" y="0" width="10" height="10" r="5" cx="5" cy="5" x1="90" x2="480" y1="215" y2="215" style="stroke: #ccc"></line><line xmlns="http://www.w3.org/2000/svg"  fill="black" stroke="none" stroke-width="1" x="0" y="0" width="10" height="10" r="5" cx="5" cy="5" x1="90" x2="480" y1="250" y2="250" style="stroke: #ccc"></line><line xmlns="http://www.w3.org/2000/svg"  fill="black" stroke="none" stroke-width="1" x="0" y="0" width="10" height="10" r="5" cx="5" cy="5" x1="90" x2="480" y1="285" y2="285" style="stroke: #ccc"></line><line xmlns="http://www.w3.org/2000/svg"  fill="black" stroke="none" stroke-width="1" x="0" y="0" width="10" height="10" r="5" cx="5" cy="5" x1="90" x2="480" y1="320" y2="320" style="stroke: #ccc"></line><text xmlns="http://www.w3.org/2000/svg"  fill="black" stroke="none" stroke-width="1" x="80" y="40" width="10" height="10" r="5" cx="5" cy="5" x1="0" x2="10" y1="0" y2="10" value="7" style="fill: #aaa;font-family:Helvetica;font-size:16px;text-anchor: end;dominant-baseline: middle">7</text><text xmlns="http://www.w3.org/2000/svg"  fill="black" stroke="none" stroke-width="1" x="80" y="75" width="10" height="10" r="5" cx="5" cy="5" x1="0" x2="10" y1="0" y2="10" value="6" style="fill: #aaa;font-family:Helvetica;font-size:16px;text-anchor: end;dominant-baseline: middle">6</text><text xmlns="http://www.w3.org/2000/svg"  fill="black" stroke="none" stroke-width="1" x="80" y="110" width="10" height="10" r="5" cx="5" cy="5" x1="0" x2="10" y1="0" y2="10" value="5" style="fill: #aaa;font-family:Helvetica;font-size:16px;text-anchor: end;dominant-baseline: middle">5</text><text xmlns="http://www.w3.org/2000/svg"  fill="black" stroke="none" stroke-width="1" x="80" y="145" width="10" height="10" r="5" cx="5" cy="5" x1="0" x2="10" y1="0" y2="10" value="4" style="fill: #aaa;font-family:Helvetica;font-size:16px;text-anchor: end;dominant-baseline: middle">4</text><text xmlns="http://www.w3.org/2000/svg"  fill="black" stroke="none" stroke-width="1" x="80" y="180" width="10" height="10" r="5" cx="5" cy="5" x1="0" x2="10" y1="0" y2="10" value="3" style="fill: #aaa;font-family:Helvetica;font-size:16px;text-anchor: end;dominant-baseline: middle">3</text><text xmlns="http://www.w3.org/2000/svg"  fill="black" stroke="none" stroke-width="1" x="80" y="215" width="10" height="10" r="5" cx="5" cy="5" x1="0" x2="10" y1="0" y2="10" value="2" style="fill: #aaa;font-family:Helvetica;font-size:16px;text-anchor: end;dominant-baseline: middle">2</text><text xmlns="http://www.w3.org/2000/svg"  fill="black" stroke="none" stroke-width="1" x="80" y="250" width="10" height="10" r="5" cx="5" cy="5" x1="0" x2="10" y1="0" y2="10" value="1" style="fill: #aaa;font-family:Helvetica;font-size:16px;text-anchor: end;dominant-baseline: middle">1</text><text xmlns="http://www.w3.org/2000/svg"  fill="black" stroke="none" stroke-width="1" x="80" y="285" width="10" height="10" r="5" cx="5" cy="5" x1="0" x2="10" y1="0" y2="10" value="0" style="fill: #aaa;font-family:Helvetica;font-size:16px;text-anchor: end;dominant-baseline: middle">0</text><text xmlns="http://www.w3.org/2000/svg"  fill="black" stroke="none" stroke-width="1" x="80" y="320" width="10" height="10" r="5" cx="5" cy="5" x1="0" x2="10" y1="0" y2="10" value="-1" style="fill: #aaa;font-family:Helvetica;font-size:16px;text-anchor: end;dominant-baseline: middle">-1</text><text xmlns="http://www.w3.org/2000/svg"  fill="black" stroke="none" stroke-width="1" x="30" y="180" width="10" height="10" r="5" cx="5" cy="5" x1="0" x2="10" y1="0" y2="10" value="Values" transform="rotate(-90 30, 180)" style="fill: #aaa;font-family:Helvetica;font-size:16px;text-anchor: middle">Values</text><line xmlns="http://www.w3.org/2000/svg"  fill="black" stroke="none" stroke-width="1" x="0" y="0" width="10" height="10" r="5" cx="5" cy="5" x1="90" x2="480" y1="285" y2="285" style="stroke: none"></line><line xmlns="http://www.w3.org/2000/svg"  fill="black" stroke="none" stroke-width="1" x="0" y="0" width="10" height="10" r="5" cx="5" cy="5" x1="129" x2="129" y1="40" y2="320" style="stroke: none"></line><text xmlns="http://www.w3.org/2000/svg"  fill="black" stroke="none" stroke-width="1" x="129" y="340" width="10" height="10" r="5" cx="5" cy="5" x1="0" x2="10" y1="0" y2="10" value="Ene" style="fill: #666;font-family:Helvetica;font-size:16px;text-anchor: middle">Ene</text><line xmlns="http://www.w3.org/2000/svg"  fill="black" stroke="none" stroke-width="1" x="0" y="0" width="10" height="10" r="5" cx="5" cy="5" x1="207" x2="207" y1="40" y2="320" style="stroke: none"></line><text xmlns="http://www.w3.org/2000/svg"  fill="black" stroke="none" stroke-width="1" x="207" y="340" width="10" height="10" r="5" cx="5" cy="5" x1="0" x2="10" y1="0" y2="10" value="Feb" style="fill: #666;font-family:Helvetica;font-size:16px;text-anchor: middle">Feb</text><line xmlns="http://www.w3.org/2000/svg"  fill="black" stroke="none" stroke-width="1" x="0" y="0" width="10" height="10" r="5" cx="5" cy="5" x1="285" x2="285" y1="40" y2="320" style="stroke: none"></line><text xmlns="http://www.w3.org/2000/svg"  fill="black" stroke="none" stroke-width="1" x="285" y="340" width="10" height="10" r="5" cx="5" cy="5" x1="0" x2="10" y1="0" y2="10" value="Mar" style="fill: #666;font-family:Helvetica;font-size:16px;text-anchor: middle">Mar</text><line xmlns="http://www.w3.org/2000/svg"  fill="black" stroke="none" stroke-width="1" x="0" y="0" width="10" height="10" r="5" cx="5" cy="5" x1="363" x2="363" y1="40" y2="320" style="stroke: none"></line><text xmlns="http://www.w3.org/2000/svg"  fill="black" stroke="none" stroke-width="1" x="363" y="340" width="10" height="10" r="5" cx="5" cy="5" x1="0" x2="10" y1="0" y2="10" value="Abr" style="fill: #666;font-family:Helvetica;font-size:16px;text-anchor: middle">Abr</text><line xmlns="http://www.w3.org/2000/svg"  fill="black" stroke="none" stroke-width="1" x="0" y="0" width="10" height="10" r="5" cx="5" cy="5" x1="441" x2="441" y1="40" y2="320" style="stroke: none"></line><text xmlns="http://www.w3.org/2000/svg"  fill="black" stroke="none" stroke-width="1" x="441" y="340" width="10" height="10" r="5" cx="5" cy="5" x1="0" x2="10" y1="0" y2="10" value="May" style="fill: #666;font-family:Helvetica;font-size:16px;text-anchor: middle">May</text><text xmlns="http://www.w3.org/2000/svg"  fill="black" stroke="none" stroke-width="1" x="285" y="380" width="10" height="10" r="5" cx="5" cy="5" x1="0" x2="10" y1="0" y2="10" value="Meses" style="fill: #666;font-family:Helvetica;font-size:16px;text-anchor: middle">Meses</text><circle xmlns="http://www.w3.org/2000/svg"  fill="black" stroke="none" stroke-width="1" x="0" y="0" width="10" height="10" r="5" cx="129" cy="320" x1="0" x2="10" y1="0" y2="10" style="fill: #FCD271"></circle><circle xmlns="http://www.w3.org/2000/svg"  fill="black" stroke="none" stroke-width="1" x="0" y="0" width="10" height="10" r="5" cx="207" cy="145" x1="0" x2="10" y1="0" y2="10" style="fill: #FCD271"></circle><line xmlns="http://www.w3.org/2000/svg"  fill="black" stroke="none" stroke-width="1" x="0" y="0" width="10" height="10" r="5" cx="5" cy="5" x1="129" x2="207" y1="320" y2="145" style="stroke: #FCD271"></line><circle xmlns="http://www.w3.org/2000/svg"  fill="black" stroke="none" stroke-width="1" x="0" y="0" width="10" height="10" r="5" cx="285" cy="110" x1="0" x2="10" y1="0" y2="10" style="fill: #FCD271"></circle><line xmlns="http://www.w3.org/2000/svg"  fill="black" stroke="none" stroke-width="1" x="0" y="0" width="10" height="10" r="5" cx="5" cy="5" x1="207" x2="285" y1="145" y2="110" style="stroke: #FCD271"></line><circle xmlns="http://www.w3.org/2000/svg"  fill="black" stroke="none" stroke-width="1" x="0" y="0" width="10" height="10" r="5" cx="363" cy="180" x1="0" x2="10" y1="0" y2="10" style="fill: #FCD271"></circle><line xmlns="http://www.w3.org/2000/svg"  fill="black" stroke="none" stroke-width="1" x="0" y="0" width="10" height="10" r="5" cx="5" cy="5" x1="285" x2="363" y1="110" y2="180" style="stroke: #FCD271"></line><circle xmlns="http://www.w3.org/2000/svg"  fill="black" stroke="none" stroke-width="1" x="0" y="0" width="10" height="10" r="5" cx="441" cy="75" x1="0" x2="10" y1="0" y2="10" style="fill: #FCD271"></circle><line xmlns="http://www.w3.org/2000/svg"  fill="black" stroke="none" stroke-width="1" x="0" y="0" width="10" height="10" r="5" cx="5" cy="5" x1="363" x2="441" y1="180" y2="75" style="stroke: #FCD271"></line><circle xmlns="http://www.w3.org/2000/svg"  fill="black" stroke="none" stroke-width="1" x="0" y="0" width="10" height="10" r="5" cx="129" cy="250" x1="0" x2="10" y1="0" y2="10" style="fill: #FA5882"></circle><circle xmlns="http://www.w3.org/2000/svg"  fill="black" stroke="none" stroke-width="1" x="0" y="0" width="10" height="10" r="5" cx="207" cy="40" x1="0" x2="10" y1="0" y2="10" style="fill: #FA5882"></circle><line xmlns="http://www.w3.org/2000/svg"  fill="black" stroke="none" stroke-width="1" x="0" y="0" width="10" height="10" r="5" cx="5" cy="5" x1="129" x2="207" y1="250" y2="40" style="stroke: #FA5882"></line><circle xmlns="http://www.w3.org/2000/svg"  fill="black" stroke="none" stroke-width="1" x="0" y="0" width="10" height="10" r="5" cx="285" cy="110" x1="0" x2="10" y1="0" y2="10" style="fill: #FA5882"></circle><line xmlns="http://www.w3.org/2000/svg"  fill="black" stroke="none" stroke-width="1" x="0" y="0" width="10" height="10" r="5" cx="5" cy="5" x1="207" x2="285" y1="40" y2="110" style="stroke: #FA5882"></line><circle xmlns="http://www.w3.org/2000/svg"  fill="black" stroke="none" stroke-width="1" x="0" y="0" width="10" height="10" r="5" cx="363" cy="75" x1="0" x2="10" y1="0" y2="10" style="fill: #FA5882"></circle><line xmlns="http://www.w3.org/2000/svg"  fill="black" stroke="none" stroke-width="1" x="0" y="0" width="10" height="10" r="5" cx="5" cy="5" x1="285" x2="363" y1="110" y2="75" style="stroke: #FA5882"></line><circle xmlns="http://www.w3.org/2000/svg"  fill="black" stroke="none" stroke-width="1" x="0" y="0" width="10" height="10" r="5" cx="441" cy="145" x1="0" x2="10" y1="0" y2="10" style="fill: #FA5882"></circle><line xmlns="http://www.w3.org/2000/svg"  fill="black" stroke="none" stroke-width="1" x="0" y="0" width="10" height="10" r="5" cx="5" cy="5" x1="363" x2="441" y1="75" y2="145" style="stroke: #FA5882"></line><circle xmlns="http://www.w3.org/2000/svg"  fill="black" stroke="none" stroke-width="1" x="0" y="0" width="10" height="10" r="5" cx="129" cy="285" x1="0" x2="10" y1="0" y2="10" style="fill: #2BBBD8"></circle><circle xmlns="http://www.w3.org/2000/svg"  fill="black" stroke="none" stroke-width="1" x="0" y="0" width="10" height="10" r="5" cx="207" cy="250" x1="0" x2="10" y1="0" y2="10" style="fill: #2BBBD8"></circle><line xmlns="http://www.w3.org/2000/svg"  fill="black" stroke="none" stroke-width="1" x="0" y="0" width="10" height="10" r="5" cx="5" cy="5" x1="129" x2="207" y1="285" y2="250" style="stroke: #2BBBD8"></line><circle xmlns="http://www.w3.org/2000/svg"  fill="black" stroke="none" stroke-width="1" x="0" y="0" width="10" height="10" r="5" cx="285" cy="215" x1="0" x2="10" y1="0" y2="10" style="fill: #2BBBD8"></circle><line xmlns="http://www.w3.org/2000/svg"  fill="black" stroke="none" stroke-width="1" x="0" y="0" width="10" height="10" r="5" cx="5" cy="5" x1="207" x2="285" y1="250" y2="215" style="stroke: #2BBBD8"></line><circle xmlns="http://www.w3.org/2000/svg"  fill="black" stroke="none" stroke-width="1" x="0" y="0" width="10" height="10" r="5" cx="363" cy="180" x1="0" x2="10" y1="0" y2="10" style="fill: #2BBBD8"></circle><line xmlns="http://www.w3.org/2000/svg"  fill="black" stroke="none" stroke-width="1" x="0" y="0" width="10" height="10" r="5" cx="5" cy="5" x1="285" x2="363" y1="215" y2="180" style="stroke: #2BBBD8"></line><circle xmlns="http://www.w3.org/2000/svg"  fill="black" stroke="none" stroke-width="1" x="0" y="0" width="10" height="10" r="5" cx="441" cy="145" x1="0" x2="10" y1="0" y2="10" style="fill: #2BBBD8"></circle><line xmlns="http://www.w3.org/2000/svg"  fill="black" stroke="none" stroke-width="1" x="0" y="0" width="10" height="10" r="5" cx="5" cy="5" x1="363" x2="441" y1="180" y2="145" style="stroke: #2BBBD8"></line><circle xmlns="http://www.w3.org/2000/svg"  fill="black" stroke="none" stroke-width="1" x="0" y="0" width="10" height="10" r="6" cx="576" cy="40" x1="0" x2="10" y1="0" y2="10" style="fill: #FCD271"></circle><text xmlns="http://www.w3.org/2000/svg"  fill="black" stroke="none" stroke-width="1" x="564" y="40" width="10" height="10" r="5" cx="5" cy="5" x1="0" x2="10" y1="0" y2="10" value="Primero" style="fill: #666;font-family:Helvetica;font-size:16px;text-anchor: end;dominant-baseline: middle">Primero</text><circle xmlns="http://www.w3.org/2000/svg"  fill="black" stroke="none" stroke-width="1" x="0" y="0" width="10" height="10" r="6" cx="576" cy="59.784000000000006" x1="0" x2="10" y1="0" y2="10" style="fill: #FA5882"></circle><text xmlns="http://www.w3.org/2000/svg"  fill="black" stroke="none" stroke-width="1" x="564" y="59.784000000000006" width="10" height="10" r="5" cx="5" cy="5" x1="0" x2="10" y1="0" y2="10" value="Segundo" style="fill: #666;font-family:Helvetica;font-size:16px;text-anchor: end;dominant-baseline: middle">Segundo</text><circle xmlns="http://www.w3.org/2000/svg"  fill="black" stroke="none" stroke-width="1" x="0" y="0" width="10" height="10" r="6" cx="576" cy="79.56800000000001" x1="0" x2="10" y1="0" y2="10" style="fill: #2BBBD8"></circle><text xmlns="http://www.w3.org/2000/svg"  fill="black" stroke="none" stroke-width="1" x="564" y="79.56800000000001" width="10" height="10" r="5" cx="5" cy="5" x1="0" x2="10" y1="0" y2="10" value="Tercero" style="fill: #666;font-family:Helvetica;font-size:16px;text-anchor: end;dominant-baseline: middle">Tercero</text></g></svg>